<svg xmlns="http://www.w3.org/2000/svg" fill="none" viewBox="-0.5 -0.5 48 48" height="48" width="48"><path fill="#000" fill-rule="evenodd" d="M7.036 43.22c0.942 -4.865 5.807 -8.789 10.359 -10.672 0.314 2.355 2.04 2.982 4.394 2.668 3.139 -0.314 4.08 -1.412 6.434 -2.982 0.785 -0.47 2.197 -1.569 2.668 -2.511 10.201 0.628 12.87 3.924 15.066 12.399 0 0.313 0.471 0.157 0.471 -0.157 -1.883 -8.789 -5.022 -12.399 -15.694 -13.184 -0.314 0 -0.314 0.314 -0.628 0.628 -0.47 0.628 -1.726 1.57 -2.354 2.04 -2.354 1.57 -3.296 2.512 -6.12 2.826 -4.865 0.627 -2.668 -3.296 -4.081 -2.825 -4.865 2.04 -10.044 6.434 -10.986 11.614 0 0.314 0.471 0.314 0.471 0.157Z" clip-rule="evenodd" stroke-width="1"></path><path fill="#000" fill-rule="evenodd" d="M18.18 31.606c0.157 -4.394 0.157 -2.355 -0.471 -7.063 0 -0.314 -0.47 -0.314 -0.47 0 -0.157 4.708 0.157 5.336 0.313 7.063 0.157 0.313 0.628 0.313 0.628 0Z" clip-rule="evenodd" stroke-width="1"></path><path fill="#000" fill-rule="evenodd" d="M28.537 25.799c0.157 1.726 0.785 3.139 2.511 3.767 0.314 0.157 0.471 -0.313 0.157 -0.47 -0.942 -0.628 -1.883 -2.355 -2.197 -3.453 -0.157 -0.313 -0.628 -0.157 -0.471 0.157Z" clip-rule="evenodd" stroke-width="1"></path><path fill="#000" fill-rule="evenodd" d="M29.95 20.306c-0.157 2.982 -2.04 6.121 -2.982 6.906 -2.511 2.04 -4.827 0.497 -7.181 -1.7 -0.157 -0.157 -0.666 0.288 -0.509 0.445 2.668 2.511 5.336 4.238 8.161 1.883 1.255 -0.941 2.825 -3.924 2.982 -7.533 0 -0.157 -0.471 -0.314 -0.471 0Z" clip-rule="evenodd" stroke-width="1"></path><path fill="#000" fill-rule="evenodd" d="M30.264 17.481c0.628 -0.628 0.942 -2.04 0.785 -2.825 -0.157 -0.785 -0.785 -1.098 -1.255 -0.941 -0.157 -1.099 0.941 -4.865 -1.256 -7.534 -3.453 -4.081 -11.614 -2.668 -13.811 0.628 -1.569 2.354 -1.098 5.179 -0.314 7.847 -0.785 -0.157 -1.412 0.628 -1.569 1.412 -0.471 1.883 1.099 4.708 2.354 3.924 0.314 2.197 0.628 3.296 2.04 4.708 0.157 0.157 0.628 -0.157 0.314 -0.314 -1.57 -1.57 -1.57 -2.825 -1.883 -5.022 0 -0.314 -0.314 -0.314 -0.471 -0.157 -0.471 0.627 -0.785 0.314 -1.255 -0.471 -1.256 -1.883 -0.314 -3.924 0.785 -3.139 0.313 0.157 0.627 0 0.627 -0.471 -1.412 -5.022 -1.412 -8.946 3.61 -10.359 2.982 -0.784 6.749 -0.627 8.946 1.727 2.04 2.354 0.941 5.022 1.412 7.69 0 0.314 0.471 0.314 0.628 0.157 0.157 -0.471 0.47 -0.157 0.47 0.314 0.157 0.628 -0.157 2.04 -0.627 2.354 -0.314 0.314 0 1.726 0.157 3.453 0 0.157 0.157 0.157 0.313 0.157 0.471 0 0 -1.57 0 -3.139Z" clip-rule="evenodd" stroke-width="1"></path><path fill="#000" fill-rule="evenodd" d="M15.354 15.127c1.255 -1.098 1.883 -3.453 2.197 -5.179 2.197 -0.941 8.632 -1.726 10.044 -1.726 0.314 0.785 1.727 4.08 2.198 3.453 0.157 -0.314 -0.157 -0.314 -0.628 -1.099 -0.628 -1.255 -0.942 -2.825 -1.256 -2.825 -1.569 -0.314 -10.986 0.785 -11.143 2.04 -0.157 1.57 -0.627 4.081 -1.726 5.179 -0.157 0 0.157 0.471 0.314 0.157Z" clip-rule="evenodd" stroke-width="1"></path><path fill="#000" fill-rule="evenodd" d="M24.614 15.284c-0.157 1.412 -0.027 1.374 0.601 2.787 0.323 0.247 0.471 0.157 0.471 -0.157 -0.157 -2.04 -0.13 -1.217 -0.601 -2.787 0 -0.313 -0.471 -0.157 -0.471 0.157Z" clip-rule="evenodd" stroke-width="1"></path><path fill="#000" fill-rule="evenodd" d="M25.538 18.864c-0.471 0.471 -1.883 0.785 -2.511 0.314 -0.313 -0.157 -0.47 0.157 -0.313 0.314 0.785 0.942 2.825 0.785 3.453 -0.157 0.628 -0.941 -0.628 -1.726 -0.785 -1.412 -0.314 0.157 0.628 0.471 0.157 0.941Z" clip-rule="evenodd" stroke-width="1"></path><path fill="#000" fill-rule="evenodd" d="M18.022 14.97c1.413 -1.883 4.708 0.628 5.336 -0.628 0.157 -0.313 0.157 -1.412 -0.314 -1.255 -0.471 0.157 0.157 1.098 -0.471 0.941 -1.883 -0.785 -3.924 -1.256 -4.865 0.627 -0.313 0.314 0.157 0.628 0.314 0.314Z" clip-rule="evenodd" stroke-width="1"></path><path fill="#000" d="M24.3 13.244c0.314 0 0.157 0.314 0.628 0.628 2.825 -2.668 4.081 -0.628 3.924 -0.471 0 0.157 -0.157 0.157 -0.314 0 -1.412 -1.412 -2.982 1.726 -3.924 0.942 -0.314 -0.157 -0.785 -1.098 -0.314 -1.098Z" stroke-width="1"></path><path fill="#000" fill-rule="evenodd" d="M20.69 21.561c1.57 0.157 1.726 0 3.453 -0.47 0.314 0 0.314 -0.471 0 -0.471 -2.354 0 -2.04 0 -3.296 0.471 -0.471 0 -0.471 0.47 -0.157 0.47Z" clip-rule="evenodd" stroke-width="1"></path><path fill="#000" fill-rule="evenodd" d="M25.399 20.776c2.197 0.157 1.726 -0.157 2.982 -0.157 0.314 0 0.471 -0.471 0.157 -0.471 -1.412 -0.47 -2.04 -0.157 -2.982 0.157 -0.471 0.157 -0.471 0.628 -0.157 0.471Z" clip-rule="evenodd" stroke-width="1"></path><path fill="#000" fill-rule="evenodd" d="M28.223 21.404c-0.157 -1.098 0.157 1.099 -6.905 0.785 -1.256 0 0.157 3.61 4.238 2.511 2.197 -0.627 2.982 -2.04 2.668 -3.296Zm-0.471 0.314c0 0.471 -0.313 1.098 -0.785 1.412 -1.255 0.942 -4.08 1.255 -5.179 -0.314 0 0 3.139 0.471 5.964 -1.098Z" clip-rule="evenodd" stroke-width="1"></path><path fill="#000" fill-rule="evenodd" d="M24.771 26.27c0.942 0.157 1.726 0 2.511 -0.785 0.314 -0.157 0 -0.627 -0.314 -0.314 -0.471 0.314 -2.354 0.628 -2.354 0.942l0.157 0.157Z" clip-rule="evenodd" stroke-width="1"></path><path fill="#000" fill-rule="evenodd" d="M18.023 15.911c-0.314 0 -0.314 0.471 0 0.471 1.255 0 2.04 0.314 3.61 -0.314 0.157 0 0.313 -0.157 0.313 -0.314 0 -0.941 -0.627 -0.627 -0.47 -0.314 -0.314 0.471 -0.628 -0.313 -3.453 0.471Z" clip-rule="evenodd" stroke-width="1"></path><path fill="#000" fill-rule="evenodd" d="M18.807 16.853c0.471 1.099 2.197 -0.157 1.412 -0.941 -0.785 -0.785 -1.883 0.157 -1.412 0.941Z" clip-rule="evenodd" stroke-width="1"></path><path fill="#000" fill-rule="evenodd" d="M25.712 14.97c0 0.785 0.785 0.628 1.256 0.628 1.098 -0.313 0.941 -0.47 1.883 -0.785 0.313 -0.157 0.157 -0.47 -0.157 -0.47 -2.355 0.471 -2.197 0.628 -2.355 0.628 0 0 -0.157 0 -0.157 -0.157 -0.157 -0.314 -0.471 -0.157 -0.471 0.157Z" clip-rule="evenodd" stroke-width="1"></path><path fill="#000" fill-rule="evenodd" d="M26.968 14.813c-1.099 0.785 0.157 2.04 1.098 1.255 0.785 -0.941 -0.471 -1.883 -1.098 -1.255Z" clip-rule="evenodd" stroke-width="1"></path><path fill="#eea159" fill-rule="evenodd" d="M34.972 12.773c0.314 -1.883 2.354 -1.726 2.825 -0.628 0.314 1.256 -1.726 1.413 -1.255 3.453 0 0.313 0.471 0.157 0.471 -0.157 -0.314 -1.413 0.941 -1.413 1.412 -2.511 0.471 -0.785 -0.157 -2.197 -1.412 -2.511 -2.354 -0.628 -2.982 2.354 -2.354 2.511 0.157 0 0.314 0 0.314 -0.157Z" clip-rule="evenodd" stroke-width="1"></path><path fill="#eea159" fill-rule="evenodd" d="M37.169 16.382c-0.157 -0.157 -0.785 0 -0.942 0.314 -0.313 0.313 -0.157 0.941 0.628 1.098 0.942 0 1.099 -1.412 0.314 -1.412Z" clip-rule="evenodd" stroke-width="1"></path><path fill="#eea159" fill-rule="evenodd" d="M39.68 12.145c0.314 -1.099 1.883 -1.256 2.197 0 0.157 0.627 -0.627 0.784 -1.098 1.412 -0.314 0.627 -0.157 1.255 0 1.883 0 0.314 0.471 0.157 0.471 0 0 -0.471 -0.157 -1.099 0.157 -1.412 0.313 -0.471 1.883 -0.785 1.255 -2.355 -0.313 -0.784 -1.255 -1.255 -2.197 -0.941 -0.942 0.314 -1.57 1.57 -1.098 1.726l0.313 -0.314Z" clip-rule="evenodd" stroke-width="1"></path><path fill="#eea159" fill-rule="evenodd" d="M41.25 16.068c-0.157 -0.314 -0.628 0 -0.942 0.471 -0.157 0.471 0 1.098 0.942 0.941 0.785 -0.47 0.785 -1.255 0 -1.412Zm-0.157 0.471c0.157 0 0.157 0 0 0Z" clip-rule="evenodd" stroke-width="1"></path><path fill="#eea159" fill-rule="evenodd" d="M43.918 11.517c1.256 -1.098 2.355 -0.314 2.355 0.314 0 0.942 -1.884 0.628 -1.256 3.296 0 0.314 0.471 0.157 0.471 -0.157 -0.314 -1.883 0.627 -1.569 1.255 -2.354 0.471 -0.628 0.314 -1.727 -0.628 -2.197 -1.569 -0.785 -2.982 0.785 -2.668 1.098 0.157 0.157 0.314 0.157 0.47 0Z" clip-rule="evenodd" stroke-width="1"></path><path fill="#eea159" fill-rule="evenodd" d="M45.331 15.755c-0.157 -0.157 -0.785 0 -0.942 0.471 -0.157 0.314 -0.157 0.941 0.785 1.098 1.255 0 0.941 -1.726 0.157 -1.569Z" clip-rule="evenodd" stroke-width="1"></path><path fill="#dd6e07" fill-rule="evenodd" d="M0.445 23.288c0.942 -1.726 2.668 -1.099 2.668 -0.314s-0.785 0.942 -1.256 1.57C1.387 25.171 1.387 25.956 1.387 26.583c0 0.314 0.47 0.314 0.47 0 0.314 -2.511 1.099 -1.57 1.884 -2.825 0.313 -0.628 0.313 -1.57 -0.471 -2.04 -2.04 -1.413 -3.767 1.412 -3.139 1.726 0.157 0 0.157 -0.157 0.314 -0.157Z" clip-rule="evenodd" stroke-width="1"></path><path fill="#dd6e07" fill-rule="evenodd" d="M4.996 22.974c1.255 -1.412 2.511 -0.785 2.511 -0.157 0 0.314 -0.313 0.471 -0.627 0.628 -1.099 0.785 -0.942 1.883 -0.785 3.296 0 0.157 0.157 0.157 0.314 0.157 0.471 0 0.157 -0.471 0.314 -1.726 0.157 -0.785 0.471 -0.941 0.785 -1.255 2.511 -1.726 -0.785 -4.551 -2.825 -1.413 -0.314 0.314 0.157 0.628 0.314 0.471Z" clip-rule="evenodd" stroke-width="1"></path><path fill="#dd6e07" fill-rule="evenodd" d="M10.018 22.974c0.785 -1.255 1.884 -0.471 1.884 0.157 0 1.098 -1.57 0.785 -1.57 3.453 0 0.314 0.471 0.314 0.471 0 0.157 -1.883 1.099 -1.569 1.726 -2.511 1.099 -1.57 -1.098 -3.296 -2.354 -2.041 -1.098 0.942 -0.314 1.256 -0.157 0.942Z" clip-rule="evenodd" stroke-width="1"></path><path fill="#dd6e07" fill-rule="evenodd" d="M2.171 27.525c-0.157 -0.471 -1.884 -0.157 -1.256 1.099 0.314 0.941 1.569 0.627 1.726 -0.157 0 -0.471 -0.157 -0.785 -0.471 -0.942Z" clip-rule="evenodd" stroke-width="1"></path><path fill="#dd6e07" fill-rule="evenodd" d="M6.408 27.683c-0.157 -0.628 -2.04 0.157 -1.255 1.255 0.471 0.785 1.57 0.471 1.726 -0.314 0 -0.471 0 -0.785 -0.471 -0.941Z" clip-rule="evenodd" stroke-width="1"></path><path fill="#dd6e07" fill-rule="evenodd" d="M10.803 27.839c0 -0.314 -0.471 -0.314 -0.942 -0.314 -1.098 0.314 -0.941 1.883 0.314 1.883 0.785 -0.157 1.098 -1.098 0.628 -1.57Z" clip-rule="evenodd" stroke-width="1"></path><path fill="#000" fill-rule="evenodd" d="M23.516 27.996c-0.314 0.628 -0.314 0.628 0 1.726 0 0.314 0.471 0.314 0.471 0 0.313 -0.941 0.313 -0.941 0 -1.726 0 -0.314 -0.471 -0.314 -0.471 0Z" clip-rule="evenodd" stroke-width="1"></path><path fill="#000" fill-rule="evenodd" d="M24.928 27.84c-0.157 0.628 -0.314 0.941 0.314 1.883 0 0.314 0.471 0.157 0.471 -0.157 0 -1.098 0.157 -0.785 -0.314 -1.726 0 -0.314 -0.471 -0.314 -0.471 0Z" clip-rule="evenodd" stroke-width="1"></path><path fill="#000" fill-rule="evenodd" d="M26.34 27.369c0 0.628 -0.157 0.785 0.471 1.727 0.157 0.313 0.471 0.157 0.471 -0.157 -0.157 -0.785 0.157 -0.785 -0.471 -1.726 -0.157 -0.314 -0.628 -0.157 -0.471 0.157Z" clip-rule="evenodd" stroke-width="1"></path></svg>