<svg xmlns="http://www.w3.org/2000/svg" fill="none" viewBox="-0.5 -0.5 48 48" height="48" width="48"><path fill="#000" fill-rule="evenodd" d="M30.547 27.793c0.753 -0.452 2.108 -0.753 3.614 -0.301 0.301 0.15 0.451 -0.301 0.15 -0.452 -1.506 -0.903 -3.012 -1.054 -4.066 0.301 -0.151 0.302 0.15 0.753 0.301 0.452Z" clip-rule="evenodd" stroke-width="1"></path><path fill="#000" fill-rule="evenodd" d="M22.867 27.191c0.452 -0.15 1.807 0.15 2.409 0.452 0.301 0.15 0.452 -0.15 0.301 -0.301 -0.753 -0.904 -1.958 -1.205 -2.861 -0.452 -0.301 0 -0.15 0.451 0.15 0.301Z" clip-rule="evenodd" stroke-width="1"></path><path fill="#000" fill-rule="evenodd" d="M32.505 31.709c0.301 0 0.301 -0.452 0 -0.452 -0.302 0 -0.603 -0.301 -0.904 -0.452 -1.205 -0.603 -1.054 -0.753 -1.355 -0.603 -0.15 0.15 0.603 1.807 2.259 1.506Z" clip-rule="evenodd" stroke-width="1"></path><path fill="#000" fill-rule="evenodd" d="M24.373 31.106c0.603 0 0.603 0 0.903 -0.451 0.301 -0.151 0.039 -0.486 -0.15 -0.452 -0.464 0 -1.526 0.903 -0.753 0.903Z" clip-rule="evenodd" stroke-width="1"></path><path fill="#000" fill-rule="evenodd" d="M28.59 27.191c1.205 -0.603 3.915 -1.506 5.421 -1.657 0.301 0 0.301 -0.451 0 -0.451 -2.409 -0.302 -4.066 0.301 -5.722 1.656 -0.15 0.301 0.15 0.753 0.301 0.451Z" clip-rule="evenodd" stroke-width="1"></path><path fill="#000" fill-rule="evenodd" d="M23.922 26.438c-0.753 -0.753 -1.355 -1.205 -2.71 -1.355 -0.301 0 -0.452 0.301 -0.15 0.451 0.602 0.302 0.602 0.452 2.56 1.205 0.301 0.15 0.603 -0.15 0.301 -0.301Z" clip-rule="evenodd" stroke-width="1"></path><path fill="#000" fill-rule="evenodd" d="M32.656 12.434c0 4.518 0.602 8.734 3.313 12.348 2.56 3.463 2.56 2.108 2.409 1.958 -1.054 -0.753 -2.861 -3.463 -3.915 -6.776 -0.602 -2.108 -1.205 -5.12 -1.355 -7.379 0 -0.451 -0.452 -0.451 -0.452 -0.15Z" clip-rule="evenodd" stroke-width="1"></path><path fill="#000" fill-rule="evenodd" d="M31.902 11.681c-0.752 3.463 -4.517 7.981 -8.583 9.637 -0.301 0.15 -0.15 0.451 0.15 0.451 4.367 -1.505 7.981 -5.27 8.885 -10.089 0 -0.301 -0.452 -0.301 -0.452 0Z" clip-rule="evenodd" stroke-width="1"></path><path fill="#000" fill-rule="evenodd" d="M30.547 12.283c-3.012 2.259 -7.077 4.518 -8.884 9.637 -0.15 0.301 0.301 0.452 0.452 0.15 1.355 -3.463 4.969 -6.324 8.734 -9.486 0.301 -0.15 0 -0.603 -0.301 -0.301Z" clip-rule="evenodd" stroke-width="1"></path><path fill="#000" fill-rule="evenodd" d="M28.891 12.433C20.91 15.897 17.597 21.619 16.693 30.202c0 0.301 0.452 0.301 0.452 0 1.054 -7.981 4.668 -14.004 11.896 -17.468 0.301 -0.15 0.15 -0.452 -0.15 -0.301Z" clip-rule="evenodd" stroke-width="1"></path><path fill="#000" fill-rule="evenodd" d="M19.404 24.029c-1.205 5.27 -3.162 10.842 -0.602 13.402 0.753 0.753 2.108 1.054 2.108 0.452 0 -0.15 -0.15 -0.15 -0.301 -0.15 -0.603 0 -1.054 -0.302 -1.506 -0.603 -1.054 -1.205 -1.054 -2.861 -0.903 -4.367 0.15 -1.355 1.807 -8.583 1.355 -8.734 -0.15 -0.15 -0.15 -0.15 -0.15 0Z" clip-rule="evenodd" stroke-width="1"></path><path fill="#000" fill-rule="evenodd" d="M19.856 35.172c0.452 1.506 1.205 2.41 2.861 3.012 0.301 0.15 0.452 -0.301 0.15 -0.451 -0.903 -0.603 -2.259 -2.41 -2.56 -2.861 -0.15 -0.15 -0.603 0 -0.452 0.301Z" clip-rule="evenodd" stroke-width="1"></path><path fill="#000" fill-rule="evenodd" d="M37.775 7.465C31.451 6.712 25.427 9.423 21.813 13.789c-2.861 3.463 -4.668 10.842 -4.969 15.36 0 0.301 0.452 0.301 0.452 0 0.301 -4.367 2.56 -11.745 5.12 -14.908 3.463 -4.216 9.486 -6.927 15.36 -6.324 0.15 0 0.15 -0.452 0 -0.452Z" clip-rule="evenodd" stroke-width="1"></path><path fill="#000" fill-rule="evenodd" d="M34.764 9.572c-0.452 0.15 -0.753 0.15 -1.506 0.603 -0.301 0.15 -0.15 0.452 0.15 0.452 2.41 -0.903 3.313 -0.15 3.765 -0.602 0.301 -0.301 0.15 -0.603 -0.15 -0.753l-0.603 -0.15c1.054 -0.301 2.259 -0.452 3.012 -0.301 0.301 0 0.452 -0.301 0.15 -0.452 -1.205 -0.301 -2.258 -0.301 -3.463 0 -0.312 0.104 -1.953 0.607 -1.355 1.205Z" clip-rule="evenodd" stroke-width="1"></path><path fill="#000" fill-rule="evenodd" d="M40.937 8.368c1.506 0.903 3.614 3.313 4.367 4.818 0.15 0.301 0.603 0 0.452 -0.15 -0.904 -2.259 -2.259 -4.216 -4.669 -4.969 -0.15 -0.301 -0.301 0.15 -0.15 0.301Z" clip-rule="evenodd" stroke-width="1"></path><path fill="#000" fill-rule="evenodd" d="M43.949 8.669c0.753 1.205 0.903 1.054 1.656 1.807 0.15 0.301 0.603 0 0.301 -0.301 -0.602 -1.205 -1.054 -1.506 -1.656 -1.807 -0.15 -0.15 -0.452 0.15 -0.301 0.301Z" clip-rule="evenodd" stroke-width="1"></path><path fill="#000" fill-rule="evenodd" d="M35.065 17.403c0.753 1.958 1.807 3.313 3.463 4.819 -0.301 4.969 2.409 16.413 -1.355 18.371 -0.301 0.15 0 0.603 0.15 0.452 3.614 -1.807 2.259 -11.294 1.958 -14.907 -0.301 -4.066 0 -3.915 -0.301 -4.216 -1.506 -1.355 -2.71 -2.56 -3.614 -4.518 0 -0.452 -0.451 -0.301 -0.301 0Z" clip-rule="evenodd" stroke-width="1"></path><path fill="#000" fill-rule="evenodd" d="M37.926 43.303c4.819 -3.012 3.915 -11.144 3.765 -16.564 0 -0.301 -0.452 -0.301 -0.452 0 0 4.818 0.301 13.402 -3.614 16.113 -0.15 0.15 0.15 0.602 0.301 0.451Z" clip-rule="evenodd" stroke-width="1"></path><path fill="#000" fill-rule="evenodd" d="M40.636 43.303c7.078 -3.915 4.066 -15.66 3.765 -22.136 -0.15 -2.861 0.301 -5.421 -1.355 -7.83 -0.15 -0.302 -0.603 0 -0.452 0.301 1.506 2.409 0.904 4.969 1.054 7.68 0.301 6.024 2.259 14.456 -0.903 19.275 -1.506 2.259 -2.71 2.259 -2.41 2.71 0 0 0.15 0.15 0.301 0Z" clip-rule="evenodd" stroke-width="1"></path><path fill="#000" fill-rule="evenodd" d="M26.481 39.689c0.904 0.603 1.807 0.753 3.313 0.15 0.301 0 0.15 -0.451 -0.151 -0.451l-1.355 0c-1.807 -0.15 -1.807 -0.301 -1.958 0 0 0.15 0 0.301 0.15 0.301Z" clip-rule="evenodd" stroke-width="1"></path><path fill="#000" fill-rule="evenodd" d="M22.114 20.866c-0.753 1.958 -0.603 1.807 -1.054 3.313 -0.753 2.259 -1.205 2.259 -0.15 5.27 0.603 1.958 0.301 2.259 0.301 3.915 0 0.603 0 1.355 0.302 1.355 0.301 0 0 -0.301 0.15 -1.205 0.15 -1.205 0.452 -1.958 0.15 -3.313 -0.15 -1.054 -0.753 -2.108 -0.753 -3.012 0 -0.903 0.452 -1.656 0.603 -2.56 0.301 -0.903 0.603 -2.56 0.753 -3.313 0.15 -0.602 -0.15 -0.753 -0.301 -0.451Z" clip-rule="evenodd" stroke-width="1"></path><path fill="#000" fill-rule="evenodd" d="M21.662 35.322c0.753 2.108 1.808 3.313 2.711 5.271 0.753 1.355 0.903 2.861 2.56 3.765 2.108 1.205 4.066 0.602 6.324 -0.15 6.776 -2.108 5.271 -2.711 4.969 -2.56 -1.506 0.903 -3.464 1.355 -5.12 1.807 -2.108 0.603 -3.915 1.205 -5.722 0 -1.355 -0.753 -1.506 -2.108 -2.259 -3.313 -0.903 -1.657 -2.259 -3.313 -2.861 -5.12 -0.301 -0.15 -0.753 0 -0.603 0.301Z" clip-rule="evenodd" stroke-width="1"></path><path fill="#000" fill-rule="evenodd" d="M22.717 28.998c0.15 -0.904 0.903 -1.205 1.958 -0.301 0.753 0.602 0.903 0.903 1.054 0.752 0.15 -0.15 0.15 -0.15 0 -0.301 -1.807 -2.711 -3.765 -1.808 -3.614 0 0.15 0 0.603 0 0.603 -0.151Z" clip-rule="evenodd" stroke-width="1"></path><path fill="#000" fill-rule="evenodd" d="M25.427 27.342c0.603 1.506 0.151 2.259 -0.602 3.765 -0.603 1.054 -1.055 2.259 -0.452 3.313 0.452 0.603 1.656 1.054 1.807 0.603 0 -0.452 -0.753 -0.15 -1.205 -0.903 -1.054 -1.807 2.861 -3.765 0.903 -6.776 -0.15 -0.452 -0.452 -0.301 -0.452 0Z" clip-rule="evenodd" stroke-width="1"></path><path fill="#000" fill-rule="evenodd" d="M27.535 35.021c0.603 0 1.355 1.054 2.259 0.301 1.054 -0.903 0.301 -2.409 -0.753 -2.71 -0.301 -0.15 -0.452 0.301 -0.15 0.452 0.602 0.301 0.903 1.205 0.301 1.656 -0.301 0.301 -0.903 -0.15 -1.355 -0.15 -0.452 0 -1.054 0.15 -0.753 0.452 0 0.15 0.301 0.15 0.452 0Z" clip-rule="evenodd" stroke-width="1"></path><path fill="#000" fill-rule="evenodd" d="M24.825 37.732c0.451 0.301 0.752 0.603 1.355 0.904 0.602 0.15 1.205 0 1.656 0 0.753 0 1.958 0.15 2.861 -0.15 0.452 -0.15 1.506 -0.753 1.205 -1.054 -0.301 -0.301 -0.301 0.301 -1.205 0.451 -0.752 0.151 -1.958 -0.15 -2.861 -0.15 -0.452 0 -1.205 0.15 -1.506 0.15 -0.452 -0.15 -0.903 -0.451 -1.355 -0.602 -0.15 -0.151 -0.301 0.301 -0.15 0.451Z" clip-rule="evenodd" stroke-width="1"></path><path fill="#000" fill-rule="evenodd" d="M30.547 36.527c0.452 0.301 0.753 1.355 1.355 2.108 0.301 0.301 1.054 1.054 1.355 0.753 0.15 -0.301 -0.15 -0.301 -0.603 -0.903 -0.451 -0.603 -0.753 -1.656 -1.807 -2.259 -0.301 -0.301 -0.452 0.15 -0.301 0.301Z" clip-rule="evenodd" stroke-width="1"></path><path fill="#000" fill-rule="evenodd" d="M23.922 35.322c-0.452 1.205 0 1.958 0.452 3.011 0.15 0.301 0.452 0.15 0.452 -0.15 -0.15 -0.753 -0.15 -1.054 -0.301 -1.958 0 -0.15 -0.15 -0.603 -0.15 -0.903 0 -0.15 -0.452 -0.301 -0.452 0Z" clip-rule="evenodd" stroke-width="1"></path><path fill="#000" fill-rule="evenodd" d="M30.698 29.148c1.355 -2.108 5.12 0.603 5.421 0.15 0.301 -0.451 -4.668 -3.614 -5.873 -0.451 -0.15 0.451 0.301 0.602 0.452 0.301Z" clip-rule="evenodd" stroke-width="1"></path><path fill="#000" fill-rule="evenodd" d="M32.651 28.028c-0.227 1.413 1.699 2.119 2.039 0.565 -0.227 -0.141 -1.473 -0.423 -2.039 -0.565Z" clip-rule="evenodd" stroke-width="1"></path><path fill="#000" fill-rule="evenodd" d="M34.803 28.451c-0.113 -0.141 -1.246 -0.565 -2.039 -0.706 -0.566 -0.141 -0.68 0.706 -0.453 1.271 0.566 1.271 2.379 1.271 2.606 -0.282 0 -0.141 -0.113 -0.283 -0.113 -0.283Zm-1.813 0c0.227 0.565 0.907 0.847 1.246 0.282 0.113 0 0.34 0 -1.246 -0.282Z" clip-rule="evenodd" stroke-width="1"></path><path fill="#000" fill-rule="evenodd" d="M24.267 27.887c-0.793 1.271 1.473 1.836 1.02 0.847 -0.34 -0.565 -1.02 -0.565 -1.02 -0.847Z" clip-rule="evenodd" stroke-width="1"></path><path fill="#000" fill-rule="evenodd" d="M24.494 27.887c-0.113 -0.282 -0.566 -0.141 -0.68 0.565 -0.227 1.554 2.266 1.695 1.926 0.424 -0.34 -0.565 -0.793 -0.848 -1.246 -0.989Zm-0.113 0.423c0 0.283 0.113 0.424 0.453 0.424 0 0 -0.227 -0.282 -0.454 -0.424Z" clip-rule="evenodd" stroke-width="1"></path><path fill="#000" fill-rule="evenodd" d="M2.84 23.727c0.15 -1.958 0.603 -3.463 0.301 -6.776 0 -0.301 -0.451 -0.301 -0.451 0 -0.15 2.56 -0.452 3.163 -0.301 6.776 0 0.301 0.452 0.301 0.452 0Z" clip-rule="evenodd" stroke-width="1"></path><path fill="#000" fill-rule="evenodd" d="M4.948 23.878c0.15 -5.572 2.409 -7.078 2.861 -3.012 0.301 2.259 -0.15 3.012 0.301 3.012 0.151 0 0.302 -0.15 0.302 -0.15 0.15 -1.355 0.602 -5.421 -1.205 -6.024 -0.904 -0.301 -1.657 0.753 -2.108 1.656 -0.753 1.656 -0.452 2.861 -0.452 4.367 -0.15 0.452 0.301 0.452 0.301 0.15Z" clip-rule="evenodd" stroke-width="1"></path><path fill="#000" fill-rule="evenodd" d="M12.778 18.909c0.903 -1.506 -1.054 -2.56 -1.958 -1.054 -0.15 0.301 -0.15 0.753 0 1.205 -0.301 0.452 -0.603 0.904 -0.603 1.355 -0.15 0.753 -0.15 3.614 0.15 3.915 0.151 0.301 0.302 0.15 0.452 0.301 0.452 0.301 0 2.41 1.054 2.56 0.451 0 0.753 -0.301 0.903 -0.753 0.15 -0.753 0 -1.054 0.15 -1.656 0 -0.15 0.452 -0.452 0.603 -0.602 0.603 -0.753 0.452 -3.614 0.301 -4.216 -0.301 -0.452 -0.602 -0.753 -1.054 -1.054Zm-0.301 0.451c-0.151 0.151 -0.301 0.151 -0.301 0.151 -0.15 -0.15 0 -0.301 0.15 -0.602 0.603 -1.054 -0.452 -1.506 -0.903 -0.753 -0.301 0.602 0.301 0.753 0 1.205 -0.904 1.205 -0.603 2.259 -0.452 4.216l0 0.452 0.301 0.15c0.603 0.452 0.603 1.506 0.603 1.958 0.15 -0.452 0 -0.904 0.15 -1.506 0.301 -0.753 0.753 -0.452 0.904 -1.506 0 -0.301 0.301 -2.108 0.15 -2.861 0 -0.451 -0.15 -0.753 -0.603 -0.903Z" clip-rule="evenodd" stroke-width="1"></path><path fill="#000" fill-rule="evenodd" d="M9.767 16.65c-0.452 1.205 -0.301 1.355 -0.15 2.56 0 0.301 0.452 0.301 0.452 0 0.301 -1.656 0.301 -1.506 0.15 -2.56 0 -0.15 -0.451 -0.301 -0.451 0Z" clip-rule="evenodd" stroke-width="1"></path><path fill="#000" fill-rule="evenodd" d="M17.296 17.102c0.301 0.15 0.451 0.753 0.451 1.205 0.151 1.355 -0.301 2.108 0.151 2.259 0.15 0 0.301 -0.15 0.301 -0.15 0 -0.753 0.753 -3.464 -0.603 -3.765 -0.451 -0.15 -0.602 0.15 -0.753 0.15 -0.15 -0.15 -0.15 -0.301 -0.753 -0.602 -1.054 -0.301 -3.313 -0.452 -5.571 0.301 -0.753 -1.054 -1.958 0 -2.409 0.151 -0.452 0.15 -3.012 0.452 -3.162 0.15 -0.15 -0.451 -0.904 0.301 0.15 0.603 0.452 0.15 1.958 0.15 2.409 0 1.656 -0.15 2.259 -1.054 2.56 -0.301 0.15 0.602 0.602 0 3.012 -0.302 4.066 -0.602 2.71 1.054 4.216 0.301Zm-0.603 -0.451c0.15 0 0.15 0 0 0Z" clip-rule="evenodd" stroke-width="1"></path><path fill="#000" fill-rule="evenodd" d="M1.936 24.18c2.409 0 0.15 0.301 8.432 0.301 0.301 0 0.301 -0.451 0 -0.451 -4.969 -0.452 -3.463 -0.452 -8.432 -0.301 -0.452 0 -0.301 0.451 0 0.451Z" clip-rule="evenodd" stroke-width="1"></path><path fill="#000" fill-rule="evenodd" d="M17.146 24.781c0.301 0 0.301 -0.452 0 -0.452 -3.915 -0.903 -4.969 0.753 0 0.452Z" clip-rule="evenodd" stroke-width="1"></path><path fill="#000" fill-rule="evenodd" d="M3.743 29.299c4.819 0.301 3.313 0.603 12.348 0 0.301 0 0.301 -0.452 0 -0.452 -1.958 0 -12.498 -0.301 -12.498 0.15 -0.15 0.301 0 0.301 0.15 0.301Z" clip-rule="evenodd" stroke-width="1"></path><path fill="#000" fill-rule="evenodd" d="M2.237 30.504c5.12 0.452 6.325 0.903 14.005 0.301 0.301 0 0.301 -0.451 0 -0.451 -2.861 0.15 -13.703 -0.301 -14.005 -0.301 -0.301 0 -0.301 0.452 0 0.452Z" clip-rule="evenodd" stroke-width="1"></path><path fill="#c94305" fill-rule="evenodd" d="M3.743 7.916c0 0.753 0 2.108 0.603 1.506 2.259 -1.656 4.367 -0.602 5.873 -2.108 2.108 -2.108 -1.506 -2.71 -1.054 -3.915 0.15 -0.301 0 -0.15 0.301 0.15 1.205 1.205 3.313 0.603 4.216 3.614 0.301 1.054 0.15 2.108 -0.753 2.861 -0.301 0.301 0 0.753 0.301 0.603 1.506 -0.452 4.668 1.205 5.271 -1.657l0 -0.903c0.903 0.903 1.205 2.259 0.451 3.313 -0.15 0.301 0.151 0.452 0.302 0.452 1.054 -0.452 2.108 -1.054 2.56 -2.108 0.15 0.903 0.15 1.807 -0.301 2.56 -0.15 0.301 0.301 0.451 0.451 0.15 0.603 -1.205 0.603 -2.56 0.302 -3.765 -0.15 -0.301 -0.452 -0.301 -0.452 0 -0.15 1.054 -0.903 1.807 -1.807 2.259 0.602 -1.656 -0.452 -3.463 -1.958 -4.367a0.333 0.333 0 0 0 -0.451 0.452c0.451 0.603 0.451 1.355 0.451 1.656 -0.301 1.807 -1.958 1.054 -3.765 1.054 0.603 -0.903 0.603 -1.807 0.302 -2.861 -0.904 -3.012 -3.313 -3.162 -4.216 -3.765 -0.753 -0.603 -0.15 -0.903 -0.603 -1.205 -0.301 -0.15 -0.452 0 -0.603 0.15 -2.108 2.108 0.452 3.162 0.904 3.765 0.301 0.452 -0.603 1.355 -1.506 1.506 -1.205 0.301 -2.108 0.15 -3.464 0.753 -0.752 0.301 -0.602 0.452 -0.602 0.15 0 -1.054 0.15 -1.355 0 -1.656 -0.301 -0.301 -0.603 0.15 -1.355 1.054C2.237 8.669 0.431 9.572 0.129 11.38c-0.452 1.958 0.903 3.915 2.71 4.366 0.301 0.151 0.452 -0.301 0.15 -0.451 -2.108 -0.603 -3.463 -3.313 -1.204 -5.572 0.603 -0.602 0.753 -0.452 1.958 -1.807Z" clip-rule="evenodd" stroke-width="1"></path><path fill="#eb8526" fill-rule="evenodd" d="M9.164 12.584c0.301 -1.807 -1.054 -2.56 -1.205 -1.807 0 0.15 0.15 0.452 -0.451 0.904 -1.055 0.753 -3.012 2.108 -0.904 3.614 0.15 0.15 0.451 -0.151 0.301 -0.302l-0.451 -0.451c-0.603 -1.055 0.451 -1.506 1.505 -2.259 0.603 -0.451 0.603 -0.903 0.301 0.904 0 0.301 0.301 0.602 0.753 0.451 1.656 -0.752 2.71 -0.602 3.012 -1.656 0.452 1.506 -0.753 2.409 -0.452 2.56 0.451 0.301 1.958 -1.958 0.301 -3.915 -0.15 -0.15 -0.301 -0.301 -0.451 -0.301 -0.452 0.15 -0.151 0.602 -0.151 0.752 0.301 1.205 -1.054 1.054 -2.108 1.506Z" clip-rule="evenodd" stroke-width="1"></path></svg>